<?xml version="1.0" encoding="UTF-8" standalone="no"?>
<!DOCTYPE svg PUBLIC "-//W3C//DTD SVG 1.1//EN"
 "http://www.w3.org/Graphics/SVG/1.1/DTD/svg11.dtd">
<!-- Generated by graphviz version 2.43.0 (0)
 -->
<!-- Title: RelayIR Pages: 1 -->
<svg width="278pt" height="1864pt"
 viewBox="0.00 0.00 278.11 1864.12" xmlns="http://www.w3.org/2000/svg" xmlns:xlink="http://www.w3.org/1999/xlink">
<g id="graph0" class="graph" transform="scale(1 1) rotate(0) translate(4 1860.12)">
<title>RelayIR</title>
<polygon fill="white" stroke="transparent" points="-4,4 -4,-1860.12 274.11,-1860.12 274.11,4 -4,4"/>
<!-- %3 -->
<g id="node1" class="node">
<title>%3</title>
<ellipse fill="#fbed8a" stroke="#fbed8a" cx="135.06" cy="-1770.33" rx="79.81" ry="16.03"/>
<text text-anchor="middle" x="135.06" y="-1766.63" font-family="Times,serif" font-size="14.00">DLA.quantize</text>
</g>
<!-- %7 -->
<g id="node3" class="node">
<title>%7</title>
<ellipse fill="#9ab8cf" stroke="#9ab8cf" cx="135.06" cy="-1686.8" rx="103.48" ry="16.03"/>
<text text-anchor="middle" x="135.06" y="-1683.1" font-family="Times,serif" font-size="14.00">DLA.qconv2d_relu</text>
</g>
<!-- %3&#45;&gt;%7 -->
<g id="edge2" class="edge">
<title>%7&#45;&gt;%7</title>
<path fill="none" stroke="black" d="M135.06,-1753.99C135.06,-1742.49 135.06,-1726.5 135.06,-1713.11"/>
<polygon fill="black" stroke="black" points="138.56,-1713.07 135.06,-1703.07 131.56,-1713.07 138.56,-1713.07"/>
<text text-anchor="middle" x="181.06" y="-1724.87" font-family="Times,serif" font-size="14.00">(1, 3, 32, 32)</text>
</g>
<!-- %5 -->
<g id="node2" class="node">
<title>%5</title>
<ellipse fill="none" stroke="white" cx="135.06" cy="-1839.86" rx="48.17" ry="16.03"/>
<text text-anchor="middle" x="135.06" y="-1836.16" font-family="Times,serif" font-size="14.00">%input</text>
</g>
<!-- %5&#45;&gt;%3 -->
<g id="edge1" class="edge">
<title>%3&#45;&gt;%3</title>
<path fill="none" stroke="black" d="M135.06,-1823.53C135.06,-1815.79 135.06,-1806.17 135.06,-1797.31"/>
<polygon fill="black" stroke="black" points="138.56,-1797.06 135.06,-1787.06 131.56,-1797.06 138.56,-1797.06"/>
</g>
<!-- %9 -->
<g id="node4" class="node">
<title>%9</title>
<ellipse fill="#9ab8cf" stroke="#9ab8cf" cx="135.06" cy="-1603.27" rx="103.48" ry="16.03"/>
<text text-anchor="middle" x="135.06" y="-1599.57" font-family="Times,serif" font-size="14.00">DLA.qconv2d_relu</text>
</g>
<!-- %7&#45;&gt;%9 -->
<g id="edge3" class="edge">
<title>%9&#45;&gt;%9</title>
<path fill="none" stroke="black" d="M135.06,-1670.47C135.06,-1658.97 135.06,-1642.97 135.06,-1629.58"/>
<polygon fill="black" stroke="black" points="138.56,-1629.54 135.06,-1619.54 131.56,-1629.54 138.56,-1629.54"/>
<text text-anchor="middle" x="185.56" y="-1641.34" font-family="Times,serif" font-size="14.00">(1, 32, 32, 32)</text>
</g>
<!-- %11 -->
<g id="node5" class="node">
<title>%11</title>
<ellipse fill="#9ab8cf" stroke="#9ab8cf" cx="135.06" cy="-1519.75" rx="103.48" ry="16.03"/>
<text text-anchor="middle" x="135.06" y="-1516.05" font-family="Times,serif" font-size="14.00">DLA.qconv2d_relu</text>
</g>
<!-- %9&#45;&gt;%11 -->
<g id="edge4" class="edge">
<title>%11&#45;&gt;%11</title>
<path fill="none" stroke="black" d="M135.06,-1586.94C135.06,-1575.44 135.06,-1559.44 135.06,-1546.05"/>
<polygon fill="black" stroke="black" points="138.56,-1546.01 135.06,-1536.01 131.56,-1546.01 138.56,-1546.01"/>
<text text-anchor="middle" x="185.56" y="-1557.81" font-family="Times,serif" font-size="14.00">(1, 32, 32, 32)</text>
</g>
<!-- %13 -->
<g id="node6" class="node">
<title>%13</title>
<ellipse fill="#9ab8cf" stroke="#9ab8cf" cx="135.06" cy="-1436.22" rx="103.48" ry="16.03"/>
<text text-anchor="middle" x="135.06" y="-1432.52" font-family="Times,serif" font-size="14.00">DLA.qconv2d_relu</text>
</g>
<!-- %11&#45;&gt;%13 -->
<g id="edge5" class="edge">
<title>%13&#45;&gt;%13</title>
<path fill="none" stroke="black" d="M135.06,-1503.41C135.06,-1491.91 135.06,-1475.91 135.06,-1462.53"/>
<polygon fill="black" stroke="black" points="138.56,-1462.49 135.06,-1452.49 131.56,-1462.49 138.56,-1462.49"/>
<text text-anchor="middle" x="185.56" y="-1474.28" font-family="Times,serif" font-size="14.00">(1, 64, 32, 32)</text>
</g>
<!-- %15 -->
<g id="node7" class="node">
<title>%15</title>
<ellipse fill="#9ab8cf" stroke="#9ab8cf" cx="135.06" cy="-1352.69" rx="103.48" ry="16.03"/>
<text text-anchor="middle" x="135.06" y="-1348.99" font-family="Times,serif" font-size="14.00">DLA.qconv2d_relu</text>
</g>
<!-- %13&#45;&gt;%15 -->
<g id="edge6" class="edge">
<title>%15&#45;&gt;%15</title>
<path fill="none" stroke="black" d="M135.06,-1419.89C135.06,-1408.39 135.06,-1392.39 135.06,-1379"/>
<polygon fill="black" stroke="black" points="138.56,-1378.96 135.06,-1368.96 131.56,-1378.96 138.56,-1378.96"/>
<text text-anchor="middle" x="185.56" y="-1390.76" font-family="Times,serif" font-size="14.00">(1, 64, 16, 16)</text>
</g>
<!-- %17 -->
<g id="node8" class="node">
<title>%17</title>
<ellipse fill="#9ab8cf" stroke="#9ab8cf" cx="135.06" cy="-1269.17" rx="103.48" ry="16.03"/>
<text text-anchor="middle" x="135.06" y="-1265.47" font-family="Times,serif" font-size="14.00">DLA.qconv2d_relu</text>
</g>
<!-- %15&#45;&gt;%17 -->
<g id="edge7" class="edge">
<title>%17&#45;&gt;%17</title>
<path fill="none" stroke="black" d="M135.06,-1336.36C135.06,-1324.86 135.06,-1308.86 135.06,-1295.47"/>
<polygon fill="black" stroke="black" points="138.56,-1295.43 135.06,-1285.43 131.56,-1295.43 138.56,-1295.43"/>
<text text-anchor="middle" x="190.06" y="-1307.23" font-family="Times,serif" font-size="14.00">(1, 128, 16, 16)</text>
</g>
<!-- %19 -->
<g id="node9" class="node">
<title>%19</title>
<ellipse fill="#9ab8cf" stroke="#9ab8cf" cx="135.06" cy="-1185.64" rx="103.48" ry="16.03"/>
<text text-anchor="middle" x="135.06" y="-1181.94" font-family="Times,serif" font-size="14.00">DLA.qconv2d_relu</text>
</g>
<!-- %17&#45;&gt;%19 -->
<g id="edge8" class="edge">
<title>%19&#45;&gt;%19</title>
<path fill="none" stroke="black" d="M135.06,-1252.83C135.06,-1241.33 135.06,-1225.33 135.06,-1211.95"/>
<polygon fill="black" stroke="black" points="138.56,-1211.91 135.06,-1201.91 131.56,-1211.91 138.56,-1211.91"/>
<text text-anchor="middle" x="190.06" y="-1223.7" font-family="Times,serif" font-size="14.00">(1, 128, 16, 16)</text>
</g>
<!-- %21 -->
<g id="node10" class="node">
<title>%21</title>
<ellipse fill="#9ab8cf" stroke="#9ab8cf" cx="135.06" cy="-1102.11" rx="103.48" ry="16.03"/>
<text text-anchor="middle" x="135.06" y="-1098.41" font-family="Times,serif" font-size="14.00">DLA.qconv2d_relu</text>
</g>
<!-- %19&#45;&gt;%21 -->
<g id="edge9" class="edge">
<title>%21&#45;&gt;%21</title>
<path fill="none" stroke="black" d="M135.06,-1169.31C135.06,-1157.8 135.06,-1141.81 135.06,-1128.42"/>
<polygon fill="black" stroke="black" points="138.56,-1128.38 135.06,-1118.38 131.56,-1128.38 138.56,-1128.38"/>
<text text-anchor="middle" x="190.06" y="-1140.18" font-family="Times,serif" font-size="14.00">(1, 128, 16, 16)</text>
</g>
<!-- %23 -->
<g id="node11" class="node">
<title>%23</title>
<ellipse fill="#9ab8cf" stroke="#9ab8cf" cx="135.06" cy="-1018.59" rx="103.48" ry="16.03"/>
<text text-anchor="middle" x="135.06" y="-1014.89" font-family="Times,serif" font-size="14.00">DLA.qconv2d_relu</text>
</g>
<!-- %21&#45;&gt;%23 -->
<g id="edge10" class="edge">
<title>%23&#45;&gt;%23</title>
<path fill="none" stroke="black" d="M135.06,-1085.78C135.06,-1074.28 135.06,-1058.28 135.06,-1044.89"/>
<polygon fill="black" stroke="black" points="138.56,-1044.85 135.06,-1034.85 131.56,-1044.85 138.56,-1044.85"/>
<text text-anchor="middle" x="181.06" y="-1056.65" font-family="Times,serif" font-size="14.00">(1, 128, 8, 8)</text>
</g>
<!-- %25 -->
<g id="node12" class="node">
<title>%25</title>
<ellipse fill="#9ab8cf" stroke="#9ab8cf" cx="135.06" cy="-935.06" rx="103.48" ry="16.03"/>
<text text-anchor="middle" x="135.06" y="-931.36" font-family="Times,serif" font-size="14.00">DLA.qconv2d_relu</text>
</g>
<!-- %23&#45;&gt;%25 -->
<g id="edge11" class="edge">
<title>%25&#45;&gt;%25</title>
<path fill="none" stroke="black" d="M135.06,-1002.25C135.06,-990.75 135.06,-974.75 135.06,-961.37"/>
<polygon fill="black" stroke="black" points="138.56,-961.33 135.06,-951.33 131.56,-961.33 138.56,-961.33"/>
<text text-anchor="middle" x="181.06" y="-973.12" font-family="Times,serif" font-size="14.00">(1, 256, 8, 8)</text>
</g>
<!-- %27 -->
<g id="node13" class="node">
<title>%27</title>
<ellipse fill="#9ab8cf" stroke="#9ab8cf" cx="135.06" cy="-851.53" rx="103.48" ry="16.03"/>
<text text-anchor="middle" x="135.06" y="-847.83" font-family="Times,serif" font-size="14.00">DLA.qconv2d_relu</text>
</g>
<!-- %25&#45;&gt;%27 -->
<g id="edge12" class="edge">
<title>%27&#45;&gt;%27</title>
<path fill="none" stroke="black" d="M135.06,-918.72C135.06,-907.22 135.06,-891.23 135.06,-877.84"/>
<polygon fill="black" stroke="black" points="138.56,-877.8 135.06,-867.8 131.56,-877.8 138.56,-877.8"/>
<text text-anchor="middle" x="181.06" y="-889.6" font-family="Times,serif" font-size="14.00">(1, 256, 8, 8)</text>
</g>
<!-- %29 -->
<g id="node14" class="node">
<title>%29</title>
<ellipse fill="#9ab8cf" stroke="#9ab8cf" cx="135.06" cy="-768.01" rx="103.48" ry="16.03"/>
<text text-anchor="middle" x="135.06" y="-764.31" font-family="Times,serif" font-size="14.00">DLA.qconv2d_relu</text>
</g>
<!-- %27&#45;&gt;%29 -->
<g id="edge13" class="edge">
<title>%29&#45;&gt;%29</title>
<path fill="none" stroke="black" d="M135.06,-835.2C135.06,-823.7 135.06,-807.7 135.06,-794.31"/>
<polygon fill="black" stroke="black" points="138.56,-794.27 135.06,-784.27 131.56,-794.27 138.56,-794.27"/>
<text text-anchor="middle" x="181.06" y="-806.07" font-family="Times,serif" font-size="14.00">(1, 256, 8, 8)</text>
</g>
<!-- %31 -->
<g id="node15" class="node">
<title>%31</title>
<ellipse fill="#9ab8cf" stroke="#9ab8cf" cx="135.06" cy="-684.48" rx="103.48" ry="16.03"/>
<text text-anchor="middle" x="135.06" y="-680.78" font-family="Times,serif" font-size="14.00">DLA.qconv2d_relu</text>
</g>
<!-- %29&#45;&gt;%31 -->
<g id="edge14" class="edge">
<title>%31&#45;&gt;%31</title>
<path fill="none" stroke="black" d="M135.06,-751.67C135.06,-740.17 135.06,-724.17 135.06,-710.79"/>
<polygon fill="black" stroke="black" points="138.56,-710.74 135.06,-700.74 131.56,-710.74 138.56,-710.74"/>
<text text-anchor="middle" x="181.06" y="-722.54" font-family="Times,serif" font-size="14.00">(1, 256, 4, 4)</text>
</g>
<!-- %33 -->
<g id="node16" class="node">
<title>%33</title>
<ellipse fill="#9ab8cf" stroke="#9ab8cf" cx="135.06" cy="-600.95" rx="103.48" ry="16.03"/>
<text text-anchor="middle" x="135.06" y="-597.25" font-family="Times,serif" font-size="14.00">DLA.qconv2d_relu</text>
</g>
<!-- %31&#45;&gt;%33 -->
<g id="edge15" class="edge">
<title>%33&#45;&gt;%33</title>
<path fill="none" stroke="black" d="M135.06,-668.14C135.06,-656.64 135.06,-640.65 135.06,-627.26"/>
<polygon fill="black" stroke="black" points="138.56,-627.22 135.06,-617.22 131.56,-627.22 138.56,-627.22"/>
<text text-anchor="middle" x="181.06" y="-639.02" font-family="Times,serif" font-size="14.00">(1, 512, 4, 4)</text>
</g>
<!-- %35 -->
<g id="node17" class="node">
<title>%35</title>
<ellipse fill="#9ab8cf" stroke="#9ab8cf" cx="135.06" cy="-517.42" rx="103.48" ry="16.03"/>
<text text-anchor="middle" x="135.06" y="-513.72" font-family="Times,serif" font-size="14.00">DLA.qconv2d_relu</text>
</g>
<!-- %33&#45;&gt;%35 -->
<g id="edge16" class="edge">
<title>%35&#45;&gt;%35</title>
<path fill="none" stroke="black" d="M135.06,-584.62C135.06,-573.12 135.06,-557.12 135.06,-543.73"/>
<polygon fill="black" stroke="black" points="138.56,-543.69 135.06,-533.69 131.56,-543.69 138.56,-543.69"/>
<text text-anchor="middle" x="181.06" y="-555.49" font-family="Times,serif" font-size="14.00">(1, 512, 4, 4)</text>
</g>
<!-- %37 -->
<g id="node18" class="node">
<title>%37</title>
<ellipse fill="#9ab8cf" stroke="#9ab8cf" cx="135.06" cy="-433.9" rx="103.48" ry="16.03"/>
<text text-anchor="middle" x="135.06" y="-430.2" font-family="Times,serif" font-size="14.00">DLA.qconv2d_relu</text>
</g>
<!-- %35&#45;&gt;%37 -->
<g id="edge17" class="edge">
<title>%37&#45;&gt;%37</title>
<path fill="none" stroke="black" d="M135.06,-501.09C135.06,-489.59 135.06,-473.59 135.06,-460.2"/>
<polygon fill="black" stroke="black" points="138.56,-460.16 135.06,-450.16 131.56,-460.16 138.56,-460.16"/>
<text text-anchor="middle" x="181.06" y="-471.96" font-family="Times,serif" font-size="14.00">(1, 512, 4, 4)</text>
</g>
<!-- %39 -->
<g id="node19" class="node">
<title>%39</title>
<ellipse fill="#9ab8cf" stroke="#9ab8cf" cx="135.06" cy="-350.37" rx="103.48" ry="16.03"/>
<text text-anchor="middle" x="135.06" y="-346.67" font-family="Times,serif" font-size="14.00">DLA.qconv2d_relu</text>
</g>
<!-- %37&#45;&gt;%39 -->
<g id="edge18" class="edge">
<title>%39&#45;&gt;%39</title>
<path fill="none" stroke="black" d="M135.06,-417.56C135.06,-406.06 135.06,-390.06 135.06,-376.68"/>
<polygon fill="black" stroke="black" points="138.56,-376.64 135.06,-366.64 131.56,-376.64 138.56,-376.64"/>
<text text-anchor="middle" x="181.06" y="-388.43" font-family="Times,serif" font-size="14.00">(1, 512, 2, 2)</text>
</g>
<!-- %41 -->
<g id="node20" class="node">
<title>%41</title>
<ellipse fill="#f8a9ce" stroke="#f8a9ce" cx="135.06" cy="-266.84" rx="135.11" ry="16.03"/>
<text text-anchor="middle" x="135.06" y="-263.14" font-family="Times,serif" font-size="14.00">DLA.qglobal_avg_pool2d</text>
</g>
<!-- %39&#45;&gt;%41 -->
<g id="edge19" class="edge">
<title>%41&#45;&gt;%41</title>
<path fill="none" stroke="black" d="M135.06,-334.04C135.06,-322.54 135.06,-306.54 135.06,-293.15"/>
<polygon fill="black" stroke="black" points="138.56,-293.11 135.06,-283.11 131.56,-293.11 138.56,-293.11"/>
<text text-anchor="middle" x="185.56" y="-304.91" font-family="Times,serif" font-size="14.00">(1, 1024, 2, 2)</text>
</g>
<!-- %43 -->
<g id="node21" class="node">
<title>%43</title>
<ellipse fill="#adbce9" stroke="#adbce9" cx="135.06" cy="-183.32" rx="69.09" ry="16.03"/>
<text text-anchor="middle" x="135.06" y="-179.62" font-family="Times,serif" font-size="14.00">DLA.flatten</text>
</g>
<!-- %41&#45;&gt;%43 -->
<g id="edge20" class="edge">
<title>%43&#45;&gt;%43</title>
<path fill="none" stroke="black" d="M135.06,-250.51C135.06,-239.01 135.06,-223.01 135.06,-209.62"/>
<polygon fill="black" stroke="black" points="138.56,-209.58 135.06,-199.58 131.56,-209.58 138.56,-209.58"/>
<text text-anchor="middle" x="185.56" y="-221.38" font-family="Times,serif" font-size="14.00">(1, 1024, 1, 1)</text>
</g>
<!-- %45 -->
<g id="node22" class="node">
<title>%45</title>
<ellipse fill="#9ce8ab" stroke="#9ce8ab" cx="135.06" cy="-99.79" rx="71.34" ry="16.03"/>
<text text-anchor="middle" x="135.06" y="-96.09" font-family="Times,serif" font-size="14.00">DLA.qlinear</text>
</g>
<!-- %43&#45;&gt;%45 -->
<g id="edge21" class="edge">
<title>%45&#45;&gt;%45</title>
<path fill="none" stroke="black" d="M135.06,-166.98C135.06,-155.48 135.06,-139.48 135.06,-126.1"/>
<polygon fill="black" stroke="black" points="138.56,-126.06 135.06,-116.06 131.56,-126.06 138.56,-126.06"/>
<text text-anchor="middle" x="167.56" y="-137.85" font-family="Times,serif" font-size="14.00">(1, 1024)</text>
</g>
<!-- } -->
<g id="node23" class="node">
<title>}</title>
<ellipse fill="#cdb9a8" stroke="#cdb9a8" cx="135.06" cy="-16.26" rx="91.85" ry="16.03"/>
<text text-anchor="middle" x="135.06" y="-12.56" font-family="Times,serif" font-size="14.00">DLA.dequantize</text>
</g>
<!-- %45&#45;&gt;} -->
<g id="edge22" class="edge">
<title>%45&#45;&gt;}</title>
<path fill="none" stroke="black" d="M135.06,-83.46C135.06,-71.95 135.06,-55.96 135.06,-42.57"/>
<polygon fill="black" stroke="black" points="138.56,-42.53 135.06,-32.53 131.56,-42.53 138.56,-42.53"/>
<text text-anchor="middle" x="158.56" y="-54.33" font-family="Times,serif" font-size="14.00">(1, 10)</text>
</g>
</g>
</svg>
